<svg xmlns="http://www.w3.org/2000/svg" xmlns:xlink="http://www.w3.org/1999/xlink" width="250" height="90.26" viewBox="0 0 622 180">
  <defs>
    <clipPath id="clip-path">
      <path id="Path_2" data-name="Path 2" d="M84,295H706V482.6H84Zm0,0"/>
    </clipPath>
  </defs>
  <g id="cloud" transform="translate(-84 -295)">
    <g id="Group_1" data-name="Group 1" clip-path="url(#clip-path)">
      <path id="Path_1" data-name="Path 1" d="M699.629,487.242a72.083,72.083,0,0,1-9.082,14.856,72.819,72.819,0,0,1-27.734,21.152c-11.645,5.078-23.6,6.059-36.118,6.715-28.07,1.476-56.175,2.445-84.281,3.066-59.141,1.278-118.32.957-177.445-.5Q277.705,530.4,190.563,524.9q-10.742-.673-21.461-1.4c-6.586-.449-13.286-.621-19.8-1.8-13.27-2.383-24.8-8.765-34.828-17.613-18.418-16.262-33.465-38.32-28.762-64.027,4.192-22.864,21.519-42.875,43.015-51.352,24.161-9.519,51.5-5.34,74.1,6.465a106.514,106.514,0,0,1,14.461-44.832c15.852-26.863,42.867-47.395,74.074-52.035,32.176-4.793,65.641,6.429,89.52,28.261,13.914-11.554,29.742-20.753,47.07-26.128,28.863-8.95,61.621-5.473,86.727,11.878a73.856,73.856,0,0,1,27.484,34.844,74.672,74.672,0,0,1,2.617,42.9c11.535-1.153,23.356,1.23,33.117,7.722a50.3,50.3,0,0,1,19.512,25.953,157.6,157.6,0,0,1,38.192-6.179c19.359-.7,43.05,1.054,57.761,15.367C707.977,447.148,707.391,469.715,699.629,487.242Zm0,0" fill="#fff"/>
    </g>
  </g>
</svg>
