<svg width="44" height="54" viewBox="0 0 44 54" fill="none" xmlns="http://www.w3.org/2000/svg">
<path fill-rule="evenodd" clip-rule="evenodd" d="M0.0373408 26.9627L0.0748295 53.9253L15.2746 53.9627L30.4743 54L30.9713 53.3024C31.437 52.6484 32.4701 51.2478 34.3272 48.7529C34.7627 48.1677 35.4729 47.2104 35.9053 46.6252C36.7535 45.4777 38.347 43.3334 39.7489 41.4528C40.2302 40.8072 41.1854 39.5196 41.8713 38.5914L43.1187 36.904L43.1197 18.452L43.1207 0H21.5603H0L0.0373408 26.9627ZM41.0462 19.149V35.9502H34.9709H28.8956V43.8006V51.6509H15.4854H2.07524V26.9993V2.34777H21.5607H41.0462V19.149ZM5.73733 5.81366C5.6791 5.87118 5.63153 7.39298 5.63153 9.19548V12.4725H6.37524H7.11895L7.07909 9.13429L7.03923 5.79605L6.44118 5.75247C6.11222 5.72856 5.79542 5.756 5.73733 5.81366ZM7.85421 9.0976V12.4725H8.51702H9.17967L9.22087 10.41L9.26191 8.34735L10.5801 10.41L11.8983 12.4725H12.5435H13.1886L13.198 9.35439L13.2073 6.23626L13.8414 7.85035C14.19 8.7381 14.7359 10.144 15.0545 10.9745L15.6336 12.4844L16.2155 12.4419C16.786 12.4 16.806 12.3789 17.2267 11.372C17.4626 10.8071 17.9126 9.65153 18.2266 8.80413C18.5404 7.95673 18.9355 6.91682 19.1041 6.49305L19.411 5.72269H18.6661C18.0911 5.72269 17.8995 5.78138 17.8271 5.97947C17.7754 6.12078 17.3903 7.11682 16.9714 8.19298L16.2097 10.1497L15.3804 7.97288L14.5509 5.79605H13.166H11.7809L11.7069 7.75908L11.6328 9.72226L11.1008 8.93297C10.8082 8.49892 10.2138 7.59899 9.78009 6.93325C9.01756 5.76304 8.97237 5.72269 8.42277 5.72269H7.85421V9.0976ZM20.8199 6.0144C19.2231 6.79958 18.5234 8.9538 19.317 10.6414C19.8239 11.7196 20.4473 12.2715 21.3955 12.4816C22.9601 12.8284 24.1311 12.3837 24.9912 11.1164C26.1521 9.40619 25.4773 6.81821 23.6464 5.9579C22.9387 5.62525 21.5548 5.65299 20.8199 6.0144ZM25.932 9.08953V12.4725H26.6757H27.4194L27.3796 9.13429L27.3397 5.79605L26.6359 5.7513L25.932 5.70655V9.08953ZM29.5611 5.9874C28.2795 6.58329 27.5827 7.97977 27.7528 9.61191C27.8794 10.8256 28.4857 11.8047 29.4142 12.2948C29.9469 12.5761 31.6216 12.5975 32.5804 12.3355L33.2273 12.1585L33.1292 11.5507C33.0753 11.2163 33.0071 10.919 32.9778 10.8901C32.9484 10.8611 32.6158 10.9412 32.2385 11.068C31.3819 11.356 30.6345 11.3619 30.0936 11.085C28.9464 10.4976 28.8811 7.98051 29.994 7.25827C30.2947 7.06311 30.5905 7.02673 31.3771 7.08791C31.9275 7.13076 32.5029 7.18769 32.6556 7.21455C32.861 7.25064 32.9833 7.12416 33.1234 6.73047C33.3061 6.21762 33.2984 6.19048 32.9197 6.0119C32.7032 5.90977 31.9925 5.80031 31.3405 5.76876C30.4015 5.72313 30.0317 5.76861 29.5611 5.9874ZM33.6373 9.0976V12.4725H35.7118H37.7863V11.8122V11.1519H36.3786H34.9709V10.4182V9.68455H36.2304H37.49V9.02424V8.36393H36.2304H34.9709V7.70362V7.04331H36.3786H37.7863V6.383V5.72269H35.7118H33.6373V9.0976ZM23.3118 7.21484C23.6883 7.4144 24.1466 8.46591 24.1506 9.13898C24.1579 10.3707 23.5097 11.1576 22.4012 11.263C21.7556 11.3245 21.628 11.2838 21.142 10.8612C20.2291 10.0674 20.0782 8.89467 20.7492 7.8053C21.2573 6.98036 22.3806 6.72151 23.3118 7.21484ZM7.40968 14.9568C5.74089 15.2872 4.95139 16.5079 5.83854 17.3863C6.67382 18.2134 6.51468 18.2059 22.1666 18.162C35.5001 18.1248 36.5664 18.1035 37.0795 17.8643C38.7499 17.086 38.206 15.3519 36.1718 14.97C35.2676 14.8002 8.26319 14.7877 7.40968 14.9568ZM7.40968 20.2392C5.65983 20.5857 4.93109 21.8219 5.93115 22.7471C6.20202 22.9976 6.67352 23.2238 7.12384 23.3195C8.15961 23.5395 35.4064 23.5395 36.4422 23.3195C38.0649 22.9748 38.5968 21.7029 37.4885 20.8175C37.1743 20.5665 36.653 20.3428 36.1718 20.2524C35.2676 20.0827 8.26319 20.0702 7.40968 20.2392ZM7.48377 25.6693C5.03289 26.0856 4.7798 28.2508 7.12384 28.7487C8.18821 28.9747 35.4088 28.9681 36.4755 28.7417C38.7467 28.2594 38.5348 26.1254 36.1718 25.6817C35.2747 25.5132 8.47108 25.5018 7.48377 25.6693ZM7.40968 30.9518C4.99525 31.4343 4.82218 33.5433 7.15599 34.0426C7.70722 34.1605 12.0435 34.1947 22.3016 34.1619C35.724 34.1191 36.7067 34.0988 37.1552 33.8561C38.7317 33.003 38.1658 31.3386 36.1718 30.9641C35.2645 30.7938 8.25859 30.7822 7.40968 30.9518ZM10.4473 36.2193C8.67335 36.8686 7.41205 37.8598 6.55617 39.2773C5.79023 40.5455 5.48335 41.591 5.48335 42.9313C5.48335 46.1816 7.86918 49.0679 11.1282 49.7601C12.1809 49.9836 13.9761 49.8491 14.9668 49.4725C17.7512 48.4141 19.4865 46.1447 19.6713 43.3204C19.8662 40.3417 18.092 37.6013 15.1907 36.3991C13.9853 35.8996 11.5707 35.808 10.4473 36.2193ZM13.1886 38.514V39.1702L14.0116 39.4072C14.4643 39.5375 14.8122 39.6879 14.7848 39.7414C14.7574 39.795 14.6449 40.0161 14.535 40.233C14.344 40.6096 14.3193 40.617 13.9787 40.396C13.456 40.0569 12.1047 40.0691 11.7169 40.4165C11.3684 40.7289 11.3112 41.4086 11.6128 41.6565C11.7239 41.7477 12.4003 42.1372 13.1159 42.5216C14.0825 43.0411 14.4898 43.3518 14.7008 43.7307C15.2775 44.7665 14.683 46.2946 13.5607 46.6613C13.0834 46.8173 13.0405 46.8789 13.0405 47.407C13.0405 47.967 13.0264 47.9825 12.5218 47.9825C12.0155 47.9825 12.0032 47.9686 12.0032 47.3956C12.0032 46.8857 11.9595 46.8082 11.6698 46.8054C11.2678 46.8016 10.0769 46.2852 10.0769 46.1147C10.0769 46.0481 10.1806 45.8469 10.3073 45.6678C10.5192 45.3683 10.5699 45.3586 10.939 45.5476C11.1598 45.6606 11.6394 45.7951 12.0051 45.8465C12.8296 45.9624 13.6396 45.599 13.8414 45.0224C14.0499 44.427 13.6347 43.9423 12.4101 43.3521C11.1752 42.757 10.7112 42.3721 10.4239 41.7042C10.0307 40.7895 10.5969 39.6958 11.6328 39.369C12.0326 39.243 12.0819 39.1599 12.1225 38.5433C12.167 37.8683 12.1755 37.8578 12.6782 37.8578C13.1839 37.8578 13.1886 37.8638 13.1886 38.514ZM38.9334 38.5826C38.6692 38.9815 37.8863 40.1132 37.1936 41.0978C36.5009 42.0824 35.6007 43.3656 35.1932 43.9495C34.7857 44.5334 33.8522 45.8521 33.1187 46.88C32.3852 47.9078 31.5517 49.0995 31.2665 49.5281C30.9812 49.9568 30.6979 50.3567 30.6367 50.4167C30.5755 50.4767 30.5256 47.6756 30.5256 44.1919V37.8578H34.9696H39.4136L38.9334 38.5826Z" fill="#58E0E0"/>
</svg>
