<svg width="50" height="52" viewBox="0 0 50 52" fill="none" xmlns="http://www.w3.org/2000/svg">
<path fill-rule="evenodd" clip-rule="evenodd" d="M3.08563 0.073664C1.89765 0.396954 0.880211 1.26172 0.345856 2.40226C-0.0293904 3.20331 0.00126806 1.15383 0.000247814 25.5111C-0.000466359 44.2728 0.00999118 47.5582 0.0716651 47.8831C0.370495 49.4575 1.56373 50.8065 3.0163 51.2123C3.38135 51.3143 3.51831 51.3166 9.15508 51.3157L14.9205 51.3148L14.2998 50.9863C12.8826 50.2364 11.6512 49.4672 10.5769 48.6606L9.87027 48.13L6.7752 48.1292L3.68007 48.1284L3.51622 47.9894C3.17699 47.7017 3.18918 47.8399 3.17281 44.1023L3.15801 40.7188L2.66712 39.8856C2.39711 39.4274 1.97402 38.7092 1.72691 38.2896L1.2776 37.5268L1.42778 37.2269C1.67391 36.7353 2.12119 35.9729 2.65712 35.1313L3.16148 34.3393L3.17454 19.0045C3.18709 4.32297 3.19158 3.66359 3.27968 3.52799C3.33033 3.45013 3.44511 3.34133 3.53474 3.2862C3.69517 3.18763 3.89769 3.18598 16.183 3.18583L28.6683 3.18562V8.96468C28.6683 15.4775 28.6434 15.0592 29.0587 15.5248C29.1873 15.6689 29.3886 15.8206 29.5468 15.8927L29.8161 16.0154L35.5932 16.0293L41.3704 16.0432L41.3712 20.0145C41.3716 22.1987 41.3888 24.0119 41.4094 24.0437C41.43 24.0756 41.8257 24.3275 42.2886 24.6036C42.7516 24.8796 43.4517 25.2976 43.8445 25.5324L44.5587 25.9592L44.5726 20.9102C44.5883 15.2875 44.6004 15.516 44.2395 14.6527C43.9833 14.04 43.6251 13.3986 43.1118 12.633C42.8694 12.2716 42.4417 11.6338 42.1611 11.2156C40.0663 8.09344 37.8198 5.75034 33.6287 2.31638C32.5729 1.45136 30.5653 0.391606 29.4276 0.0988094C29.0408 -0.000743597 28.8085 -0.00249194 16.1873 0.000850487C5.57059 0.00362727 3.29641 0.0162771 3.08563 0.073664ZM32.4622 5.61258C32.7744 5.87273 33.4775 6.48151 34.0246 6.96544C34.5717 7.44943 35.2489 8.03708 35.5295 8.27141C36.1173 8.76228 37.9285 10.6386 38.4817 11.3296C38.8395 11.7766 39.1258 12.1857 39.3768 12.6087L39.4913 12.8015H35.6612H31.8311V8.97059C31.8311 6.86358 31.8453 5.13966 31.8628 5.13966C31.8802 5.13966 32.1499 5.35249 32.4622 5.61258ZM10.1208 8.11653C9.80013 8.31363 9.63561 8.66432 9.56333 9.30484C9.48926 9.96093 9.77539 10.8345 10.1451 11.0812L10.335 11.2079L16.2221 11.1948L22.1092 11.1817L22.2217 11.0134C22.7788 10.18 22.6894 8.49926 22.0676 8.11704C21.9146 8.02299 21.7101 8.01965 16.0938 8.01965C10.4881 8.01965 10.2727 8.02314 10.1208 8.11653ZM10.0166 14.6142C9.77784 14.8254 9.65775 15.0989 9.58394 15.5991C9.4687 16.3799 9.67923 17.2154 10.0601 17.4893L10.2274 17.6095L16.1517 17.623L22.076 17.6365L22.2328 17.4566C22.4396 17.2191 22.5496 16.8424 22.5841 16.2544C22.6335 15.4115 22.4596 14.8138 22.0922 14.5643L21.9196 14.447H16.0625H10.2054L10.0166 14.6142ZM26.4868 20.5699C26.0746 20.6101 25.3015 20.762 25.3015 20.8028C25.3015 20.8141 26.4206 20.8205 27.7884 20.8169C29.1765 20.8134 30.1625 20.7929 30.0201 20.7707C28.2933 20.5009 27.5997 20.4615 26.4868 20.5699ZM10.8099 20.8753C10.3196 20.959 9.91429 21.2721 9.71254 21.7229C9.38632 22.4519 9.59332 23.35 10.1816 23.7581C10.5792 24.0338 10.8162 24.0629 12.6623 24.0629H14.3361L14.7413 23.8576C17.5571 22.4305 21.3207 21.2829 24.3578 20.9253C24.6383 20.8923 24.8774 20.8559 24.8892 20.8443C24.9292 20.8048 11.0439 20.8354 10.8099 20.8753ZM31.8056 20.9309C32.3961 21.0214 34.0786 21.3856 34.2977 21.4704C34.3458 21.489 34.3817 21.4775 34.3817 21.4434C34.3817 21.2949 34.2079 21.0716 34.0108 20.9668C33.8055 20.8576 33.7308 20.8515 32.4687 20.8406L31.1424 20.8293L31.8056 20.9309ZM26.6298 23.4521C19.0466 23.8892 11.8456 28.0547 7.61705 34.4502C7.14172 35.1691 6.64058 36.0273 6.32001 36.6712L6.05812 37.1973L6.24799 37.5849C6.52697 38.1545 7.15024 39.2223 7.61491 39.9266C10.0389 43.601 13.2449 46.4733 17.0885 48.4143C19.814 49.7906 22.5439 50.578 25.7606 50.9155C26.7285 51.017 29.517 51.0007 30.4793 50.8878C33.4996 50.5337 36.0224 49.8015 38.6412 48.5189C41.2864 47.2236 43.3174 45.7633 45.4018 43.6581C47.1986 41.8435 48.5214 40.0479 49.6564 37.8829L50 37.2274L49.757 36.7773C47.5124 32.6192 44.1542 29.1218 40.1206 26.7419C36.0227 24.324 31.335 23.1809 26.6298 23.4521ZM16.2213 29.2289C16.2213 29.2419 16.1532 29.5601 16.07 29.9359C15.4115 32.9105 15.4671 35.3543 16.2488 37.7918C16.7471 39.3455 17.4578 40.6791 18.4701 41.9601C22.026 46.4593 28.0773 47.8021 33.0439 45.194C35.6812 43.8091 37.7596 41.4488 38.8895 38.5556C39.5479 36.8698 39.8224 35.2593 39.7733 33.3703C39.7441 32.2453 39.6761 31.7167 39.3573 30.1349C39.2581 29.6422 39.1769 29.2322 39.1769 29.2237C39.1769 29.2152 39.258 29.2637 39.3571 29.3315C39.4562 29.3994 39.6049 29.4698 39.6873 29.488C39.7698 29.5063 40.146 29.7452 40.5233 30.0188C42.8646 31.717 44.845 33.8283 46.1511 36.0186C46.4734 36.5591 46.7777 37.1414 46.7777 37.2178C46.7777 37.3558 45.1087 39.6677 44.2467 40.7237C42.5739 42.773 41.0268 44.1551 38.7574 45.6274C36.3401 47.1957 33.3845 48.237 30.2497 48.625C29.1839 48.7569 26.3956 48.7579 25.3525 48.6268C21.1932 48.1041 17.2315 46.3619 13.7217 43.5122C11.7148 41.8828 9.72356 39.4752 8.76922 37.5244L8.60792 37.1946L9.12564 36.4372C10.9022 33.8379 12.6804 31.7986 14.3383 30.459C14.9985 29.9257 15.5693 29.5137 15.6483 29.5137C15.6729 29.5137 15.7832 29.4449 15.8934 29.3609C16.0729 29.2239 16.2213 29.1642 16.2213 29.2289ZM26.0667 29.3573C26.9385 29.6131 27.7711 30.1154 28.4384 30.7881C29.0955 31.4505 29.5655 32.2823 29.7956 33.1904C29.8885 33.5568 29.9129 33.7922 29.9128 34.3216C29.9126 35.2776 29.7656 35.8974 29.3407 36.7347C28.7063 37.9849 27.652 38.8454 26.2452 39.2612C25.6896 39.4255 24.574 39.4901 23.9966 39.3914C21.9764 39.0463 20.4358 37.6312 19.9053 35.6335C19.7936 35.2127 19.775 35.033 19.7725 34.3473C19.7701 33.6881 19.7891 33.472 19.8826 33.0974C20.3786 31.1109 21.8357 29.6984 23.8221 29.2788C24.3349 29.1705 25.5784 29.214 26.0667 29.3573Z" fill="#58E0E0"/>
</svg>
