<svg width="58" height="54" viewBox="0 0 58 54" fill="none" xmlns="http://www.w3.org/2000/svg">
<path fill-rule="evenodd" clip-rule="evenodd" d="M43.4282 0.14532C42.9778 0.307797 41.9806 1.18893 39.7607 3.38617L36.7119 6.40371L40.474 10.1444C42.5431 12.2018 44.2683 13.8851 44.3078 13.8851C44.5 13.8851 50.3489 7.91675 50.5838 7.48084C50.9217 6.85421 50.9375 6.12717 50.6293 5.39704C50.3502 4.7358 46.3153 0.651373 45.6149 0.321298C44.8583 -0.035469 44.0988 -0.096611 43.4282 0.14532ZM23.2007 19.7759C16.9096 26.0029 11.7947 31.1334 11.8341 31.1769C12.4921 31.9014 19.2863 38.5593 19.3677 38.5593C19.516 38.5593 42.244 16.0813 42.244 15.9346C42.244 15.8109 34.8411 8.45368 34.7167 8.45368C34.674 8.45368 29.4917 13.5487 23.2007 19.7759ZM9.49967 34.0971C9.30118 34.8785 8.66728 37.4197 8.38664 38.5593C8.3131 38.858 8.17576 39.4516 8.08137 39.8783C7.98714 40.3051 7.77046 41.1431 7.59988 41.7405C7.4293 42.338 7.28756 42.8824 7.28505 42.9502C7.27988 43.0905 8.11979 42.9651 9.16195 42.6701C10.5826 42.2678 15.1236 41.1555 16.7269 40.817C16.964 40.7669 17.1581 40.6702 17.1581 40.6021C17.1581 40.4672 10.0342 33.3898 9.83096 33.3227C9.76276 33.3002 9.61365 33.6486 9.49967 34.0971ZM1.49334 49.0796C1.19921 49.2253 0.740606 49.6128 0.474225 49.9409C0.0443151 50.4704 -0.00883534 50.6465 0.00104224 51.5106C0.0129581 52.5518 0.230892 52.973 1.11345 53.66L1.5501 54H28.9955H56.4409L56.8776 53.66C57.7877 52.9514 58.0011 52.5298 58 51.4427C57.9989 50.3119 57.7698 49.8793 56.8366 49.2444L56.2995 48.879L29.1637 48.8468C3.85832 48.817 1.99208 48.8327 1.49334 49.0796Z" fill="#58E0E0"/>
</svg>
