<svg width="45" height="51" viewBox="0 0 45 51" fill="none" xmlns="http://www.w3.org/2000/svg">
<path fill-rule="evenodd" clip-rule="evenodd" d="M34.0493 0.0880237C32.1529 0.393475 30.2138 2.27625 29.8201 4.19436C29.6618 4.96556 29.695 6.18071 29.8953 6.94827C30.3477 8.68196 31.8448 10.1887 33.6388 10.7158C34.4085 10.942 35.8841 10.9283 36.6563 10.6879C39.1474 9.91235 40.7331 7.66466 40.5823 5.12313C40.5542 4.65123 40.4754 4.12885 40.4072 3.96229C39.9667 2.88706 39.8111 2.58877 39.4199 2.06993C38.2036 0.456867 36.2456 -0.265679 34.0493 0.0880237ZM28.348 12.2286C27.8536 12.3841 27.1432 12.8248 26.8087 13.1837C26.6717 13.3307 26.1851 14.0187 25.7274 14.7127C24.5235 16.538 22.8644 19.0711 22.2231 20.0626C21.6263 20.9855 19.7762 23.8126 18.5028 25.7478C17.6634 27.0233 17.5288 27.4158 17.6878 28.1237L17.7848 28.5555L16.5918 30.2899C14.6643 33.0922 14.9103 32.8074 14.5938 32.6037C14.4443 32.5074 13.9233 32.1428 13.4362 31.7934C10.8839 29.9629 10.4615 29.7512 9.37739 29.758C8.18345 29.7657 7.45015 30.2188 6.56388 31.4968C6.22433 31.9863 5.71949 32.7004 5.44199 33.0836C5.1645 33.4667 4.74169 34.0665 4.50244 34.4163C3.57621 35.771 2.86531 36.7948 2.41385 37.4247C0.989843 39.4112 0.624658 39.9582 0.325063 40.5539C0.0197167 41.1612 -0.0045011 41.2815 0.000544284 42.169C0.00669965 43.2732 0.158364 43.7065 0.839289 44.5664C1.28661 45.1312 1.42395 45.2017 1.52708 44.9197C1.64968 44.5848 2.34564 43.6318 2.73292 43.2686C3.61223 42.4439 4.43816 42.0347 5.68356 41.8068C6.51928 41.6539 6.6433 41.6542 7.42533 41.8108C8.3335 41.9927 9.51008 42.514 9.96538 42.9365C10.121 43.0807 10.2631 43.1829 10.2811 43.1634C10.3141 43.1279 11.1189 41.9654 12.542 39.8978C12.9623 39.2871 13.7023 38.2196 14.1863 37.5256C15.2412 36.0133 15.7132 35.3326 16.4953 34.1945C16.8196 33.7226 17.2742 33.064 17.5055 32.7309C17.7368 32.3978 18.2957 31.5859 18.7476 30.9267C19.5044 29.8225 19.6087 29.7129 20.0736 29.5328C20.7019 29.2896 20.937 29.0508 21.7951 27.7847C22.7326 26.4013 23.7268 24.9582 24.6113 23.6965C25.0201 23.1136 25.708 22.1143 26.14 21.4758C27.1465 19.9884 27.708 19.2372 27.7681 19.2975C27.7944 19.3236 27.7676 19.5633 27.7087 19.83C27.6498 20.0967 27.5343 20.6784 27.452 21.1225C27.3697 21.5667 27.184 22.566 27.0393 23.3432C26.3737 26.9186 26.3411 27.2116 26.4776 28.3904C26.6541 29.9143 27.0057 30.7847 28.3937 33.1347C28.6561 33.5788 29.3171 34.7371 29.8626 35.7087C30.4081 36.6803 31.1822 38.043 31.5828 38.737C31.9835 39.4309 32.4371 40.2259 32.5907 40.5035C33.0557 41.3437 34.845 44.4816 35.4111 45.4496C35.7033 45.9493 36.0276 46.5171 36.1319 46.7114C37.022 48.3706 37.7948 49.6335 38.1133 49.949C38.3728 50.2062 38.6518 50.3642 38.9897 50.4453C40.5102 50.8102 41.8725 49.6365 41.6832 48.1246C41.6369 47.7547 40.5404 45.0671 39.5934 43.0023C39.4853 42.7666 39.2325 42.1761 39.0316 41.69C38.8307 41.204 38.513 40.4737 38.3256 40.0671C38.1381 39.6605 37.9847 39.308 37.9847 39.2837C37.9847 39.2593 37.8979 39.047 37.7919 38.8116C37.2813 37.6788 36.8747 36.7379 36.8747 36.6891C36.8747 36.6595 36.7126 36.2791 36.5144 35.8438C36.0345 34.7897 36.0156 34.7465 35.7177 34.0184C35.5759 33.6717 35.3505 33.1493 35.2169 32.8576C34.3007 30.8569 33.9344 29.8885 33.9853 29.6017C34.0488 29.2443 34.2879 27.97 34.5108 26.8005C34.5981 26.3424 34.7534 25.5135 34.8558 24.9583C34.9583 24.4031 35.0925 23.6763 35.1541 23.3432C35.279 22.6673 35.7967 19.9216 36.0221 18.7403C36.4313 16.5942 36.0037 15.0577 34.6043 13.6475C33.878 12.9156 33.2692 12.5567 32.2294 12.2479C31.5588 12.0487 28.9611 12.0358 28.348 12.2286ZM37.0466 19.7598C37.0193 19.8431 36.8966 20.4563 36.774 21.1225C36.6514 21.7887 36.5121 22.4928 36.4642 22.6871C36.4165 22.8814 36.2803 23.5398 36.1617 24.1502L35.946 25.26L36.3851 25.6428C36.6267 25.8533 37.3692 26.4664 38.0352 27.0053C40.1681 28.7309 41.9669 30.2012 42.0954 30.3236C42.164 30.389 42.4478 30.5182 42.7261 30.6107C43.1937 30.766 43.2681 30.7664 43.7112 30.6157C44.2435 30.4348 44.5313 30.2267 44.767 29.8521C45.1274 29.2797 45.0611 28.3328 44.6279 27.8633C44.3768 27.5914 42.9366 26.341 42.38 25.9118C42.1961 25.7701 41.779 25.4233 41.4531 25.1411C40.5809 24.3861 38.6117 22.7187 38.3358 22.5016C38.1769 22.3766 37.9287 21.8594 37.5964 20.9609C37.3214 20.2171 37.0739 19.6765 37.0466 19.7598ZM25.6876 32.2043C25.6137 32.4384 25.2205 33.7883 24.8137 35.204C24.407 36.6197 24.0263 37.9036 23.9677 38.0572C23.9093 38.2107 23.4803 38.9148 23.0145 39.6218C22.5486 40.3287 21.6325 41.7249 20.9787 42.7242C20.3251 43.7235 19.3632 45.1891 18.8413 45.9811C18.3195 46.773 17.827 47.5778 17.747 47.7695C17.4615 48.4529 17.6292 49.3816 18.136 49.9245C18.4892 50.3029 18.921 50.4779 19.5186 50.4846C20.5932 50.4967 20.5276 50.5647 24.2631 45.5781C26.7199 42.2985 27.7257 40.8761 27.9395 40.3796C28.1013 40.0036 28.3563 39.4234 28.5062 39.0903C28.656 38.7571 28.8679 38.2785 28.977 38.0266L29.1754 37.5687L28.8918 37.0677C28.7359 36.7921 28.5759 36.5019 28.5362 36.4228C28.4967 36.3436 28.1713 35.7758 27.8133 35.161C27.4553 34.5461 26.9839 33.7252 26.7656 33.3365C26.1867 32.3056 25.9667 31.9324 25.89 31.851C25.8526 31.8112 25.7615 31.9702 25.6876 32.2043ZM5.64381 44.1207C4.68256 44.4402 3.97954 45.0315 3.56935 45.8653C3.36854 46.2735 3.32656 46.5141 3.32495 47.2666C3.32313 48.0761 3.35371 48.23 3.60547 48.6798C4.15754 49.6659 4.76076 50.1644 5.68992 50.4027C7.56176 50.8823 9.31311 49.7779 9.7455 47.8451C10.0552 46.4606 9.19777 44.8615 7.83047 44.2741C7.2324 44.0172 6.17791 43.9432 5.64381 44.1207Z" fill="#58E0E0"/>
</svg>
