<svg width="62" height="62" viewBox="0 0 62 62" fill="none" xmlns="http://www.w3.org/2000/svg">
<path fill-rule="evenodd" clip-rule="evenodd" d="M27.1602 13.2528C19.0485 21.3015 13.8133 26.6902 13.8144 26.9901C13.8152 27.2616 14.0534 27.8423 14.3438 28.2805C14.9159 29.1443 15.0423 30.7918 14.6001 31.6184C14.374 32.0407 14.4131 32.1321 14.8195 32.1321C15.3481 32.1321 16.2839 33.0281 16.5537 33.7923C16.6438 34.0481 16.8868 34.2571 17.0935 34.2571C17.5042 34.2571 19.3906 36.2209 19.3906 36.6485C19.3906 36.7941 19.5457 36.9133 19.7351 36.9133C20.1657 36.9133 22.0469 38.8139 22.0469 39.2487C22.0469 39.4251 22.202 39.5696 22.3914 39.5696C22.822 39.5696 24.7031 41.4701 24.7031 41.905C24.7031 42.0813 24.8224 42.2258 24.968 42.2258C25.3956 42.2258 27.3594 44.1123 27.3594 44.523C27.3594 44.7296 27.5684 44.9727 27.8242 45.0627C28.5884 45.3326 29.4844 46.2684 29.4844 46.797C29.4844 47.2034 29.5757 47.2424 29.9981 47.0164C30.8247 46.5741 32.4721 46.7006 33.3359 47.2727C33.7742 47.5631 34.2935 47.8013 34.4901 47.8021C34.8861 47.8042 60.7357 22.3611 61.3424 21.3722C61.8776 20.4996 61.408 20.0217 59.6225 19.6222L58.1921 19.3021L57.8733 17.8781C57.5001 16.21 57.3965 16.1048 55.6484 15.6195C54.4019 15.2734 54.2991 15.1778 53.9726 14.0627C53.4445 12.2575 53.3064 12.1029 51.9034 11.7499C50.413 11.3748 50.069 11.0133 49.84 9.58292C49.6408 8.33714 49.3847 8.118 47.6518 7.71213L46.2955 7.39444L45.977 5.97122C45.602 4.2946 45.4476 4.14478 43.6706 3.72855C42.3276 3.41405 42.3157 3.4021 42.0046 2.05352C41.6739 0.621534 41.3034 -0.0141065 40.8074 0.000237205C40.6425 0.00501846 34.5012 5.96856 27.1602 13.2528ZM37.6553 24.7262C37.7158 34.4141 37.6739 35.823 37.3153 36.1207C37.0018 36.3808 36.7527 36.3903 36.2498 36.1611L35.5938 35.8623V25.0189C35.5938 13.414 35.5911 13.4379 36.92 13.5933L37.5859 13.6712L37.6553 24.7262ZM31.3687 21.9186C32.3558 22.4288 33.2007 23.7716 33.2021 24.8317C33.2042 26.5943 31.4513 28.4133 29.75 28.4133C28.0734 28.4133 26.2969 26.5981 26.2969 24.8848C26.2969 22.4057 29.1191 20.7551 31.3687 21.9186ZM45.2606 21.9098C47.0672 22.767 47.6375 25.5087 46.3319 27.06C45.5653 27.9711 43.9522 28.5687 42.9431 28.3153C41.9196 28.0587 40.7105 26.9067 40.3649 25.8594C40.1083 25.0819 40.1312 24.714 40.4959 23.7593C41.2555 21.7698 43.2963 20.9777 45.2606 21.9098ZM28.9258 24.1323C28.3807 24.5735 28.3454 24.7137 28.6251 25.3276C28.8657 25.8556 29.1359 26.0227 29.75 26.0227C30.3641 26.0227 30.6343 25.8556 30.8749 25.3276C31.1546 24.7137 31.1193 24.5735 30.5742 24.1323C30.2348 23.8571 29.8637 23.6321 29.75 23.6321C29.6363 23.6321 29.2652 23.8571 28.9258 24.1323ZM43.0977 23.9238C42.5056 24.1442 42.3425 24.7716 42.6612 25.6025C42.8644 26.1324 44.183 26.1569 44.6128 25.6389C45.4216 24.6643 44.3541 23.456 43.0977 23.9238ZM4.18359 36.2299C1.88275 38.4742 0 40.4876 0 40.7043C0 41.2983 0.560735 41.6494 2.06205 41.9961C3.41063 42.3071 3.42258 42.3191 3.73708 43.6621C4.15358 45.4402 4.30286 45.5932 5.98666 45.9701L7.41652 46.2899L7.70711 47.6905C8.0487 49.3358 8.22933 49.5207 9.90675 49.943C11.2628 50.2844 11.5188 50.5766 11.7924 52.0938C12.0076 53.2865 12.2589 53.4942 13.9732 53.8958L15.3295 54.2135L15.648 55.6367C16.0233 57.3136 16.1771 57.4632 17.9576 57.8802L19.3139 58.1979L19.6323 59.6211C20.0199 61.3532 20.4829 61.8324 21.3302 61.379C21.908 61.0698 29.4844 53.2998 29.4844 53.0166C29.4844 52.9385 29.1855 52.4341 28.8203 51.8959C28.1172 50.8597 27.9897 49.8703 28.4152 48.7509C28.602 48.2601 28.5874 48.0696 28.3634 48.0696C27.9321 48.0696 26.5625 46.7189 26.5625 46.2934C26.5625 46.1016 26.4074 45.9446 26.218 45.9446C25.7874 45.9446 23.9062 44.044 23.9062 43.6092C23.9062 43.4328 23.787 43.2883 23.6414 43.2883C23.2148 43.2883 21.25 41.4024 21.25 40.9931C21.25 40.7872 20.9738 40.5139 20.6359 40.3856C19.9862 40.1383 18.3281 38.4006 18.3281 37.9665C18.3281 37.8255 18.173 37.7102 17.9836 37.7102C17.5884 37.7102 15.6719 35.8261 15.6719 35.4378C15.6719 35.296 15.406 35.0619 15.0809 34.9177C14.7557 34.7735 14.2428 34.2866 13.9411 33.8355C13.5139 33.197 13.2775 33.0607 12.8722 33.2193C11.8721 33.6103 10.7424 33.4562 9.77102 32.7962C9.23366 32.4309 8.69789 32.1361 8.58048 32.1409C8.46308 32.1456 6.4847 33.9859 4.18359 36.2299Z" fill="#58E0E0"/>
</svg>
