<svg width="41" height="41" viewBox="0 0 41 41" fill="none" xmlns="http://www.w3.org/2000/svg">
<path fill-rule="evenodd" clip-rule="evenodd" d="M19.3219 40.9658C30.625 41.6164 40.3154 32.9809 40.9661 21.6778C41.6167 10.3746 32.9812 0.684196 21.678 0.0335566C10.3749 -0.617083 0.684466 8.01846 0.0338262 19.3216C-0.616814 30.6247 8.01873 40.3152 19.3219 40.9658ZM18.3492 22.3734C18.0105 23.1634 17.7893 24.2534 17.6859 25.6435L20.9306 25.8303C21.0329 24.053 21.5381 22.7154 22.4462 21.8174L24.467 20.0332C26.4756 18.1545 27.5389 16.192 27.6566 14.1458C27.7758 12.0761 27.2496 10.4152 26.0782 9.16286C24.9191 7.89952 23.2346 7.20425 21.0246 7.07704C18.8966 6.95454 17.1324 7.43957 15.7321 8.53211C14.3442 9.61364 13.584 11.1008 13.4516 12.9937L16.6963 13.1805C16.7576 12.1165 17.1689 11.2896 17.9302 10.6999C18.6915 10.1102 19.6684 9.84973 20.8611 9.91838C22.0888 9.98905 23.0041 10.3937 23.6068 11.1323C24.2102 11.8592 24.4765 12.8365 24.4059 14.0642C24.3325 15.3387 23.7727 16.5031 22.7266 17.5574L20.2927 19.7929C19.3358 20.7233 18.688 21.5834 18.3492 22.3734ZM17.7748 29.9072C17.4389 30.2398 17.2558 30.6692 17.2255 31.1953C17.1952 31.7215 17.3278 32.1691 17.6233 32.538C17.9312 32.896 18.4009 33.0931 19.0323 33.1295C19.6637 33.1658 20.1528 33.0239 20.4998 32.7036C20.8473 32.3717 21.0363 31.9426 21.0666 31.4164C21.0969 30.8903 20.9584 30.4424 20.6512 30.0727C20.3447 29.6914 19.8757 29.4826 19.2443 29.4462C18.6129 29.4099 18.123 29.5635 17.7748 29.9072Z" fill="#58E0E0"/>
</svg>
