<svg width="41" height="41" viewBox="0 0 41 41" fill="none" xmlns="http://www.w3.org/2000/svg">
<path fill-rule="evenodd" clip-rule="evenodd" d="M20.5 41C31.8218 41 41 31.8218 41 20.5C41 9.17816 31.8218 0 20.5 0C9.17816 0 0 9.17816 0 20.5C0 31.8218 9.17816 41 20.5 41ZM31.3608 15.1246C32.1662 14.1582 32.0356 12.7219 31.0692 11.9166C30.1028 11.1112 28.6665 11.2418 27.8612 12.2082L19.6658 22.0426C18.8761 22.9903 18.4321 23.515 18.0777 23.8374L18.0641 23.8497L18.0495 23.8387C17.6673 23.5497 17.1777 23.0674 16.3054 22.1951L12.9994 18.8891C12.1099 17.9996 10.6677 17.9996 9.77816 18.8891C8.88863 19.7787 8.88863 21.2209 9.77815 22.1104L13.0841 25.4163L13.1771 25.5094C13.9208 26.2533 14.6362 26.969 15.3019 27.4724C16.0475 28.0362 17.0241 28.5664 18.2755 28.5096C19.5269 28.4529 20.4514 27.8364 21.143 27.2074C21.7603 26.6459 22.408 25.8683 23.0813 25.0601L23.1655 24.959L31.3608 15.1246ZM17.8654 24.0069L17.8685 24.0051C17.8664 24.0064 17.8654 24.0069 17.8654 24.0069ZM18.2763 23.9882L18.273 23.9868C18.2741 23.9873 18.2749 23.9877 18.2755 23.9879C18.276 23.9881 18.2763 23.9882 18.2763 23.9882Z" fill="#26A541"/>
</svg>
