<svg width="54" height="35" viewBox="0 0 54 35" fill="none" xmlns="http://www.w3.org/2000/svg">
<path fill-rule="evenodd" clip-rule="evenodd" d="M1.63402 0.541431C1.20976 0.837937 0.667276 1.4566 0.428927 1.91586C0.0229387 2.69775 -0.00445493 3.53237 0.000461884 14.9794C0.0053787 26.4815 0.0320698 27.2674 0.45117 28.2123C0.766548 28.9237 1.17254 29.3612 1.84146 29.7104C2.77519 30.1982 3.04069 30.204 24.6323 30.204C49.3744 30.204 47.6006 30.3463 48.6367 28.2778C49.1625 27.2279 49.1635 27.2037 49.1635 15.103C49.1635 3.0024 49.1625 2.97819 48.6367 1.92832C47.6002 -0.140987 49.399 0.00211255 24.442 0.00211255H2.40596L1.63402 0.541431ZM44.2083 5.2546L46.8221 8.10987L46.8102 15.1421L46.7982 22.1741L44.1183 25.0505L41.4382 27.9268H24.5895H7.7407L5.0505 25.0505L2.3603 22.1741L2.34859 15.1637L2.33665 8.1535L4.96926 5.27617L7.60186 2.39909H24.5981H41.5942L44.2083 5.2546ZM6.68757 7.00079L4.67799 9.20577V15.1196V21.0334L6.69014 23.2218L8.70229 25.41H24.5794H40.4565L42.4686 23.2218L44.4808 21.0334V15.0745V9.11564L42.5492 6.97994L40.6176 4.84424L24.6574 4.82027L8.69737 4.79606L6.68757 7.00079ZM51.5048 16.5489C51.5048 28.9762 51.5217 28.7912 50.2302 30.5247C49.9022 30.965 49.0801 31.6393 48.4035 32.023L47.1733 32.7208L26.1598 32.7869C14.6025 32.8231 5.14626 32.9341 5.14626 33.0331C5.14626 33.4579 5.89221 34.2453 6.63699 34.6072C7.36257 34.9598 9.57842 34.9979 29.3012 34.9979C54.059 34.9979 52.2833 35.1403 53.3194 33.0717C53.845 32.0221 53.8462 31.9947 53.8462 19.9708C53.8462 9.44235 53.7984 7.79994 53.4683 6.95501C53.1463 6.13117 52.1054 5.03576 51.6444 5.03576C51.5676 5.03576 51.5048 10.2166 51.5048 16.5489ZM29.9645 6.95333C31.0162 8.03005 30.1691 9.11061 28.2733 9.11061C27.6583 9.11061 27.1549 9.15759 27.1549 9.21488C27.1549 9.27216 27.2577 9.59575 27.3831 9.93397C27.5761 10.4534 27.7578 10.5488 28.5538 10.5488C30.167 10.5488 31.0401 12.0035 29.9123 12.8123C29.6262 13.0174 29.0204 13.1869 28.566 13.1888C27.8179 13.1919 27.6791 13.3058 27.0919 14.3955C26.4349 15.6148 24.6962 17.0206 23.8449 17.0206C22.9484 17.0206 23.2687 17.542 25.3897 19.535C26.6077 20.6798 27.6709 21.8304 27.7519 22.0921C27.9434 22.7098 27.2588 23.4924 26.5272 23.4924C25.8236 23.4924 18.726 16.7025 18.726 16.0292C18.726 15.7835 18.9368 15.3667 19.1943 15.103C19.5891 14.6989 19.9747 14.6236 21.649 14.6236C23.5242 14.6236 23.6782 14.5839 24.4 13.9115L25.1647 13.1996L22.4137 13.1924C19.9801 13.1862 19.6085 13.1301 19.1943 12.7061C18.9368 12.4424 18.726 12.0649 18.726 11.8671C18.726 11.6694 18.9368 11.2919 19.1943 11.0282C19.6085 10.6042 19.9801 10.5481 22.4137 10.5418L25.1647 10.5347L24.4 9.82275C23.6817 9.15375 23.5185 9.11061 21.7012 9.11061C19.535 9.11061 18.726 8.75202 18.726 7.79227C18.726 6.61081 19.3392 6.47394 24.6316 6.47394C29.1841 6.47394 29.5262 6.50462 29.9645 6.95333Z" fill="#26A541"/>
</svg>
