<svg xmlns="http://www.w3.org/2000/svg" xmlns:xlink="http://www.w3.org/1999/xlink" width="219.444" height="75" viewBox="0 0 219.444 75">
  <defs>
    <clipPath id="clip-path">
      <path id="Path_2" data-name="Path 2" d="M34.832,314H254.276v75H34.832Zm0,0" transform="translate(-34.832 -314)" fill="#fff"/>
    </clipPath>
  </defs>
  <g id="plane" transform="translate(45.249 -40.914)">
    <g id="Group_1" data-name="Group 1" transform="translate(-45.249 40.914)" clip-path="url(#clip-path)">
      <path id="Path_1" data-name="Path 1" d="M254.015,330.276s-2.88-3.4-9.688-3.142c0,0-7.333-6.545-25.4-3.665l-69.657,13.352-24.354-9.949-8.9,1.048,16.236,12.3-21.212,4.19s-18.068,4.713-35.875-8.378L48.45,314.043l-13.618,2.619,22.783,39.011a3.9,3.9,0,0,0-1.832,4.974l-12.047,8.378,8.38-.523,12.831-4.974,60.753,2.618L141.674,363l-20.949,25.92,10.475-.786,20.164-16.756h.785s0,.785,1.834.785c0,0,11.259,1.833,18.069-2.094l-1.571-8.378a1.222,1.222,0,0,0-1.572-.786l-6.022.524,4.189-3.4,63.11-12.3s18.854-3.928,24.091-13.352Zm0,0" transform="translate(-34.832 -314.03)" fill="#fff"/>
    </g>
  </g>
</svg>
